<?xml version="1.0" encoding="UTF-8" standalone="no"?>
<svg
   width="39.999996mm"
   height="40.000004mm"
   viewBox="0 0 39.999996 40.000004"
   version="1.1"
   id="svg5"
   xml:space="preserve"
   xmlns="http://www.w3.org/2000/svg"
   xmlns:svg="http://www.w3.org/2000/svg"><defs
     id="defs2" /><g
     id="layer1"
     transform="translate(-107.48809,-40.15886)"><rect
       style="fill:#ff6600;fill-opacity:1;stroke-width:0.264999;stroke-linecap:round;stroke-linejoin:round"
       id="rect1"
       width="40"
       height="40"
       x="107.48809"
       y="40.158863"
       ry="7.2329187" /><g
       style="fill:#f9f9f9"
       id="g1"
       transform="matrix(0.05086596,0,0,0.05086596,114.17708,47.35678)"><path
         d="M 501.1,395.7 384,278.6 C 360.9,255.5 326.4,251 298.6,264.7 L 192,158.1 V 96 L 64,0 0,64 96,192 h 62.1 l 106.6,106.6 c -13.6,27.8 -9.2,62.3 13.9,85.4 l 117.1,117.1 c 14.6,14.6 38.2,14.6 52.7,0 l 52.7,-52.7 c 14.5,-14.6 14.5,-38.2 0,-52.7 z M 331.7,225 c 28.3,0 54.9,11 74.9,31 l 19.4,19.4 c 15.8,-6.9 30.8,-16.5 43.8,-29.5 37.1,-37.1 49.7,-89.3 37.9,-136.7 -2.2,-9 -13.5,-12.1 -20.1,-5.5 L 413.2,178.1 345.3,166.8 334,98.9 408.4,24.5 C 415,17.9 411.8,6.6 402.7,4.3 355.3,-7.4 303.1,5.2 266.1,42.2 237.6,70.7 224.2,108.3 224.9,145.8 l 82.1,82.1 c 8.1,-1.9 16.5,-2.9 24.7,-2.9 z M 227.8,307 171.1,250.3 18.7,402.8 c -25,25 -25,65.5 0,90.5 25,25 65.5,25 90.5,0 L 232.8,369.7 c -7.6,-19.9 -9.9,-41.6 -5,-62.7 z M 64,472 c -13.2,0 -24,-10.8 -24,-24 0,-13.3 10.7,-24 24,-24 13.3,0 24,10.7 24,24 0,13.2 -10.7,24 -24,24 z"
         id="path1"
         style="fill:#f9f9f9" /></g><g
       id="tool_fill"
       style="fill:none;fill-rule:evenodd;stroke:none;stroke-width:1"
       transform="matrix(1.956861,0,0,1.956861,125.52922,117.16689)"><path
         d="M 24,0 V 24 H 0 V 0 Z m -11.40651,23.257841 -0.01155,0.0017 -0.07106,0.03553 -0.019,0.0037 v 0 l -0.01516,-0.0037 -0.07106,-0.03553 c -0.0098,-0.0031 -0.01861,-4.89e-4 -0.02351,0.0054 l -0.0041,0.01092 -0.01709,0.427279 0.005,0.02039 0.01101,0.01222 0.103573,0.07398 0.01487,0.0039 v 0 l 0.01177,-0.0039 0.103575,-0.07398 0.0126,-0.01604 v 0 l 0.0034,-0.01656 -0.01709,-0.427279 c -0.002,-0.01013 -0.0085,-0.01653 -0.01607,-0.01799 z m 0.264901,-0.112555 -0.01384,0.002 -0.184705,0.09235 -0.01,0.01024 v 0 l -0.0027,0.01121 0.0179,0.429528 0.0048,0.01278 v 0 l 0.0085,0.0071 0.200954,0.09275 c 0.01209,0.0037 0.02289,-2.52e-4 0.02849,-0.008 l 0.004,-0.01406 -0.03415,-0.614631 c -0.0024,-0.01194 -0.01027,-0.01953 -0.01929,-0.02125 z m -0.715344,0.002 c -0.0098,-0.0049 -0.02087,-0.002 -0.02741,0.0053 l -0.0057,0.01394 -0.03415,0.614631 c -6.39e-4,0.0115 0.007,0.0207 0.01688,0.0234 l 0.01561,-0.0013 0.200955,-0.09275 0.0094,-0.0081 v 0 l 0.0039,-0.0118 0.0179,-0.429528 -0.0032,-0.01259 v 0 l -0.0095,-0.0089 z"
         id="MingCute"
         fill-rule="nonzero" /><path
         d="m 21.735498,-37.626814 c 2.166073,-0.555922 4.565558,0.01333 6.264413,1.71215 1.90216,1.902188 2.38867,4.681618 1.463272,7.033061 l 4.303179,3.641152 c 1.378975,1.166875 1.466173,3.263265 0.188804,4.540634 -1.277369,1.277369 -3.373665,1.190171 -4.540541,-0.188897 l -3.640216,-4.302057 c -2.3522,0.927269 -5.133362,0.441133 -7.036457,-1.461962 -1.698996,-1.699042 -2.268193,-4.098846 -1.711972,-6.265077 0.186436,-0.726116 1.103161,-0.95603 1.610441,-0.405001 l 2.848272,3.09395 2.149522,-0.789877 0.79172,-2.151571 -3.095082,-2.845624 c -0.5516,-0.50714 -0.321808,-1.424445 0.404645,-1.610881 z"
         id="path2"
         fill="#09244b"
         style="fill:#ffffff;stroke-width:0.935596" /></g></g></svg>
