<?xml version="1.0" encoding="UTF-8" standalone="no"?>
<!-- Created with Inkscape (http://www.inkscape.org/) -->

<svg
   width="39.999996mm"
   height="40.000004mm"
   viewBox="0 0 39.999996 40.000004"
   version="1.1"
   id="svg5"
   inkscape:version="1.3 (0e150ed, 2023-07-21)"
   sodipodi:docname="runmates.svg"
   xml:space="preserve"
   xmlns:inkscape="http://www.inkscape.org/namespaces/inkscape"
   xmlns:sodipodi="http://sodipodi.sourceforge.net/DTD/sodipodi-0.dtd"
   xmlns="http://www.w3.org/2000/svg"
   xmlns:svg="http://www.w3.org/2000/svg"><sodipodi:namedview
     id="namedview7"
     pagecolor="#ffffff"
     bordercolor="#eeeeee"
     borderopacity="1"
     inkscape:showpageshadow="0"
     inkscape:pageopacity="0"
     inkscape:pagecheckerboard="0"
     inkscape:deskcolor="#505050"
     inkscape:document-units="mm"
     showgrid="false"
     inkscape:zoom="0.89616416"
     inkscape:cx="385.53204"
     inkscape:cy="210.34093"
     inkscape:window-width="1680"
     inkscape:window-height="1050"
     inkscape:window-x="1680"
     inkscape:window-y="-86"
     inkscape:window-maximized="0"
     inkscape:current-layer="layer1" /><defs
     id="defs2" /><g
     inkscape:label="Layer 1"
     inkscape:groupmode="layer"
     id="layer1"
     transform="translate(-83.20228,-39.451752)"><rect
       style="fill:#ff6600;fill-opacity:1;stroke-width:0.264999;stroke-linecap:round;stroke-linejoin:round"
       id="rect14887"
       width="40"
       height="40"
       x="83.202278"
       y="39.451752"
       ry="7.2329187" /><path
       style="font-size:28.8103px;line-height:1.25;font-family:Audiowide;-inkscape-font-specification:Audiowide;fill:#ffffff;stroke-width:0.337633"
       d="m 117.18764,54.626366 q 0,1.25201 -0.30949,2.236737 -0.30948,0.984727 -0.84405,1.744373 -0.5205,0.74558 -1.20981,1.280146 -0.68931,0.534566 -1.44895,0.886254 -0.74558,0.337621 -1.5193,0.492364 -0.75964,0.154742 -1.43488,0.154742 l 7.63866,6.597672 h -5.65514 l -7.6246,-6.597672 h -2.63063 v -3.657557 h 8.27171 q 0.6893,-0.05627 1.25201,-0.281351 0.57676,-0.239148 0.98472,-0.633039 0.42203,-0.393891 0.64711,-0.942524 0.22508,-0.562701 0.22508,-1.280145 v -2.307075 q 0,-0.309486 -0.0844,-0.464229 -0.0703,-0.16881 -0.19694,-0.239148 -0.11254,-0.0844 -0.25322,-0.09847 -0.1266,-0.01407 -0.23914,-0.01407 h -12.06994 v 16.51528 H 97.028868 V 49.688663 q 0,-0.379824 0.140675,-0.717444 0.140675,-0.337621 0.379823,-0.590837 0.253216,-0.253215 0.590837,-0.39389 0.33762,-0.140676 0.731511,-0.140676 h 13.884656 q 1.22387,0 2.06792,0.450161 0.84405,0.436094 1.36455,1.111335 0.53457,0.661174 0.75965,1.434888 0.23915,0.773714 0.23915,1.448956 z"
       id="text14891"
       transform="scale(0.96966011,1.0312892)"
       aria-label="R" /></g></svg>
